<?xml version="1.0" encoding="utf-8"?>
<!-- Generator: Adobe Illustrator 26.5.0, SVG Export Plug-In . SVG Version: 6.00 Build 0)  -->
<svg version="1.1" id="Layer_1" xmlns="http://www.w3.org/2000/svg" xmlns:xlink="http://www.w3.org/1999/xlink" x="0px" y="0px"
	 viewBox="0 0 612 792" style="enable-background:new 0 0 612 792;" xml:space="preserve">
<style type="text/css">
	.st0{fill:url(#SVGID_1_);}
	.st1{fill:#BE1E2D;}
</style>
<linearGradient id="SVGID_1_" gradientUnits="userSpaceOnUse" x1="-9.094947e-13" y1="306" x2="612" y2="306">
	<stop  offset="0.2764" style="stop-color:#9E1F63"/>
	<stop  offset="1" style="stop-color:#ED1C24"/>
</linearGradient>
<path class="st0" d="M534.85,508.83C582.79,454.79,612,383.76,612,306c0-80.9-31.61-154.51-83.06-209.28v-0.01
	c-0.04-0.06-0.11-0.08-0.14-0.14C475.21,39.6,400.12,3.13,316.6,0.27l-0.01-0.01l-5.96-0.16C309.09,0.05,307.55,0,306,0
	s-3.09,0.05-4.63,0.11l-5.94,0.16l-0.01,0.01c-83.52,2.86-158.6,39.33-212.2,96.3c-0.04,0.05-0.11,0.07-0.14,0.14
	c0,0,0,0.01-0.01,0.02C31.61,151.49,0,225.1,0,306c0,77.76,29.21,148.79,77.15,202.83c0.06,0.09,0.06,0.2,0.14,0.3
	c0.19,0.26,0.46,0.39,0.66,0.63c53.88,60.23,131.18,99.03,217.45,101.98l0.01,0.01l5.94,0.16c1.55,0.04,3.09,0.09,4.64,0.09
	s3.09-0.05,4.63-0.11l5.94-0.16l0.01-0.01c86.37-2.97,163.75-41.84,217.63-102.19c0.14-0.18,0.36-0.23,0.49-0.42
	C534.78,509.03,534.78,508.92,534.85,508.83z M21.37,316.55h126.65c1.19,44.73,9.93,88.19,25.48,128.91
	c-30.01,10.86-58.7,25.42-85.59,43.59C48.38,442.02,23.77,382.08,21.37,316.55z M93.68,116.31c26.25,17.07,54.2,30.75,83.36,40.96
	c-17.85,43.34-27.73,90.06-29.02,138.17H21.37C23.89,226.79,50.77,164.27,93.68,116.31z M590.63,295.45H463.98
	c-1.29-48.12-11.16-94.84-29.02-138.17c29.15-10.21,57.11-23.89,83.36-40.96C561.23,164.27,588.11,226.79,590.63,295.45z
	 M295.45,157.89c-30.51-0.87-60.45-5.41-89.38-13.54c21.39-43.87,51.59-83.47,89.38-116.45V157.89z M295.45,178.99v116.46H169.12
	c1.3-45.88,10.92-90.38,28.13-131.63C228.97,173.01,261.9,178.09,295.45,178.99z M316.55,178.99c33.54-0.9,66.48-5.97,98.2-15.17
	c17.21,41.26,26.83,85.75,28.13,131.63H316.55V178.99z M316.55,157.89V27.9c37.8,32.97,68,72.57,89.38,116.45
	C377,152.47,347.06,157.02,316.55,157.89z M426.38,137.93c-20.27-42.47-48.4-81.16-83.23-114.33
	c61.79,8.08,117.39,36.02,160.21,77.22C479.05,116.25,453.26,128.66,426.38,137.93z M185.62,137.93
	c-26.88-9.27-52.66-21.68-76.96-37.11c42.81-41.19,98.42-69.13,160.21-77.22C234.02,56.77,205.89,95.46,185.62,137.93z
	 M169.12,316.55h126.33v105.92c-34.89,0.93-69.08,6.37-101.94,16.26C178.66,400.16,170.32,358.96,169.12,316.55z M295.45,443.57
	V584.1c-40.46-35.3-72.17-78.18-93.74-125.74C231.96,449.44,263.38,444.48,295.45,443.57z M316.55,584.1V443.57
	c32.07,0.9,63.49,5.87,93.74,14.77C388.73,505.92,357.01,548.81,316.55,584.1z M316.55,422.47V316.55h126.33
	c-1.19,42.41-9.54,83.61-24.4,122.19C385.63,428.84,351.45,423.4,316.55,422.47z M463.98,316.55h126.65
	c-2.41,65.53-27,125.47-66.55,172.5c-26.89-18.17-55.58-32.73-85.59-43.59C454.06,404.74,462.79,361.28,463.98,316.55z
	 M102.26,504.86c24.97-16.59,51.55-29.92,79.32-39.9c20.52,46.01,49.98,87.93,87.27,123.43
	C203.94,579.9,145.86,549.51,102.26,504.86z M343.15,588.4c37.29-35.5,66.75-77.42,87.27-123.43c27.77,9.97,54.34,23.31,79.32,39.9
	C466.14,549.51,408.06,579.9,343.15,588.4z"/>
<g>
	<g>
		<path d="M77.96,720.52l14.87-56.9h6.99l14.87,56.9l12.83-56.9h10.58l-17.72,72.57H110l-13.38-50.71l-13.97,50.71H72.27
			l-17.72-72.57h10.58L77.96,720.52z"/>
		<path d="M168.8,736.94c-7.22,0-12.81-2.01-16.77-6.04c-3.96-4.03-5.94-9.75-5.94-17.17v-5.84c0-7.72,1.9-13.69,5.71-17.92
			c3.81-4.23,9.17-6.34,16.1-6.34c6.52,0,11.57,2.4,15.15,7.19c3.58,4.79,5.37,11.51,5.37,20.16v3.39h-34.94v-8.19h25.25
			c-0.3-4.19-1.39-7.47-3.27-9.83c-1.88-2.36-4.4-3.54-7.56-3.54c-3.83,0-6.81,1.26-8.93,3.79c-2.13,2.53-3.19,6.11-3.19,10.73v6.59
			c0,4.29,1.14,7.59,3.42,9.88c2.28,2.3,5.48,3.44,9.61,3.44c2.06,0,4.11-0.42,6.14-1.25c2.03-0.83,3.84-2,5.44-3.49l6.69,6.69
			c-2.56,2.46-5.44,4.37-8.63,5.71C175.23,736.27,172.02,736.94,168.8,736.94z"/>
		<path d="M202.39,736.19v-72.57h10.18v72.57H202.39z M225.59,736.94c-3.23,0-6.04-0.77-8.43-2.32c-2.4-1.55-4.16-3.73-5.29-6.56
			l0.7-10.83c0,2.23,0.4,4.13,1.2,5.69c0.8,1.56,1.95,2.76,3.47,3.59c1.51,0.83,3.35,1.25,5.52,1.25c3.36,0,5.96-1.02,7.81-3.07
			c1.85-2.05,2.77-4.93,2.77-8.66V704.8c0-3.79-0.92-6.74-2.77-8.83c-1.85-2.1-4.45-3.14-7.81-3.14c-2.16,0-4,0.4-5.52,1.2
			c-1.51,0.8-2.67,1.96-3.47,3.49c-0.8,1.53-1.2,3.39-1.2,5.59l-1.05-9.98c1.56-3.03,3.61-5.37,6.14-7.01
			c2.53-1.65,5.34-2.47,8.44-2.47c5.56,0,9.85,1.84,12.88,5.51c3.03,3.68,4.54,8.88,4.54,15.6v11.28c0,6.62-1.56,11.76-4.69,15.42
			C235.69,735.11,231.28,736.94,225.59,736.94z"/>
		<path d="M249,673.3v-9.68h51.21v9.68H249z M269.52,736.19v-66.63h10.18v66.63H269.52z"/>
		<path d="M328.41,736.94c-7.22,0-12.81-2.01-16.77-6.04c-3.96-4.03-5.94-9.75-5.94-17.17v-5.84c0-7.72,1.9-13.69,5.72-17.92
			c3.81-4.23,9.17-6.34,16.1-6.34c6.52,0,11.57,2.4,15.15,7.19c3.58,4.79,5.37,11.51,5.37,20.16v3.39h-34.94v-8.19h25.25
			c-0.3-4.19-1.39-7.47-3.27-9.83s-4.4-3.54-7.56-3.54c-3.83,0-6.8,1.26-8.93,3.79c-2.13,2.53-3.19,6.11-3.19,10.73v6.59
			c0,4.29,1.14,7.59,3.42,9.88c2.28,2.3,5.48,3.44,9.61,3.44c2.06,0,4.11-0.42,6.14-1.25c2.03-0.83,3.84-2,5.44-3.49l6.69,6.69
			c-2.56,2.46-5.44,4.37-8.63,5.71S331.64,736.94,328.41,736.94z"/>
		<path d="M382.91,736.94c-7.12,0-12.64-1.96-16.55-5.89c-3.91-3.93-5.86-9.47-5.86-16.62v-8.54c0-7.09,1.95-12.57,5.86-16.45
			c3.91-3.88,9.42-5.81,16.55-5.81c4.06,0,7.72,0.72,10.98,2.15c3.26,1.43,5.86,3.48,7.79,6.14l-7.34,6.59
			c-1.43-1.66-3.13-2.94-5.09-3.84c-1.96-0.9-4.03-1.35-6.19-1.35c-3.93,0-6.97,1.1-9.13,3.29s-3.24,5.29-3.24,9.28v8.54
			c0,4.09,1.08,7.25,3.24,9.48c2.16,2.23,5.21,3.34,9.13,3.34c2.16,0,4.23-0.48,6.19-1.45c1.96-0.96,3.66-2.33,5.09-4.09l7.34,7.09
			c-1.93,2.6-4.53,4.6-7.81,6.01C390.59,736.23,386.94,736.94,382.91,736.94z"/>
		<path d="M412.91,736.19v-72.57h10.18v72.57H412.91z M444.35,736.19V704.8c0-3.66-0.94-6.49-2.82-8.49c-1.88-2-4.55-2.99-8.01-2.99
			c-3.33,0-5.9,0.87-7.71,2.6c-1.81,1.73-2.72,4.18-2.72,7.34l-1.05-9.98c1.6-3.06,3.68-5.43,6.26-7.11
			c2.58-1.68,5.43-2.52,8.56-2.52c5.62,0,9.97,1.84,13.05,5.51c3.08,3.68,4.62,8.88,4.62,15.6v31.44H444.35z"/>
		<path d="M468.26,736.19v-10.68h10.68v10.68H468.26z"/>
		<path class="st1" d="M504.35,663.62v72.57h-10.18v-72.57H504.35z"/>
		<path class="st1" d="M522.31,736.19v-72.57h10.18v72.57H522.31z M529.2,736.19v-9.68h16.42c5.36,0,9.51-1.39,12.45-4.17
			c2.94-2.78,4.42-6.7,4.42-11.75v-21.36c0-5.06-1.47-8.98-4.42-11.75c-2.95-2.78-7.1-4.17-12.45-4.17H529.2v-9.68h16.12
			c8.79,0,15.58,2.27,20.39,6.81c4.81,4.54,7.21,10.94,7.21,19.19v20.56c0,5.49-1.08,10.17-3.24,14.05s-5.31,6.84-9.43,8.88
			c-4.13,2.05-9.12,3.07-14.97,3.07H529.2z"/>
	</g>
</g>
</svg>
