<?xml version="1.0" encoding="UTF-8"?>
<!DOCTYPE svg PUBLIC "-//W3C//DTD SVG 1.1//EN" "http://www.w3.org/Graphics/SVG/1.1/DTD/svg11.dtd">
<!-- Creator: CorelDRAW 2021.5 -->
<svg xmlns="http://www.w3.org/2000/svg" xml:space="preserve" width="8.26772in" height="5.82677in" version="1.1" style="shape-rendering:geometricPrecision; text-rendering:geometricPrecision; image-rendering:optimizeQuality; fill-rule:evenodd; clip-rule:evenodd"
viewBox="0 0 8267.72 5826.77"
 xmlns:xlink="http://www.w3.org/1999/xlink"
 xmlns:xodm="http://www.corel.com/coreldraw/odm/2003">
 <defs>
  <style type="text/css">
  </style>
  <linearGradient id="id0" gradientUnits="userSpaceOnUse" x1="2248.23" y1="6137.13" x2="5888.83" y2="-150.82">
   <stop offset="0" style="stop-opacity:1; stop-color:#FF0044"/>
   <stop offset="1" style="stop-opacity:1; stop-color:#FFA600"/>
  </linearGradient>
 </defs>
 <g id="Layer_x0020_1">
  <metadata id="CorelCorpID_0Corel-Layer"/>
  <path class="fil0" d="M5809.51 2655.43c-18.92,32.75 -61.13,43.78 -93.88,24.87 -37.11,-21.43 -42.07,-61.93 -18.05,-103.53 94.5,-163.68 38.84,-374.3 -125.03,-468.91 -154.86,-89.41 -352.4,-43.21 -452.75,101.13 -21.53,37.3 -69.99,49.64 -107.28,28.11 -37.29,-21.53 -50.07,-69.23 -28.54,-106.52 1.05,-1.81 2.17,-3.57 3.32,-5.27l472.62 -818.6c94.25,-163.25 37.8,-373.93 -125.45,-468.18 -163.25,-94.25 -373.93,-37.8 -468.18,125.45l-608.55 1054.04c-94.25,163.25 -37.8,373.93 125.44,468.18 162.95,94.07 369.84,43.26 464.35,-119.3 21.53,-37.3 69.23,-50.07 106.52,-28.55 37.3,21.54 50.07,69.23 28.54,106.53 -1.2,2.09 -2.85,4.71 -4.21,6.65l-985.96 1707.74c-19.21,41.6 -70,57.91 -109.82,34.92 -37.3,-21.53 -50.07,-69.23 -28.54,-106.52 1.05,-1.81 2.16,-3.58 3.32,-5.27l586.83 -1016.43c94.25,-163.25 37.8,-373.93 -125.45,-468.18 -163.25,-94.25 -373.93,-37.8 -468.18,125.45l-814.22 1410.26c-19.86,34.4 -63.86,46.19 -98.26,26.33 -34.39,-19.86 -46.19,-63.86 -26.33,-98.26l1742.61 -3018.28c94.25,-163.25 37.8,-373.93 -125.45,-468.18 -163.25,-94.25 -373.93,-37.8 -468.18,125.45l-1417.39 2454.98c-21.5,37.24 -69.13,50.01 -106.38,28.5 -37.24,-21.5 -50,-69.13 -28.5,-106.38l1076.57 -1864.67c94.25,-163.24 37.8,-373.93 -125.45,-468.18 -163.25,-94.25 -373.93,-37.8 -468.18,125.44l-1200.96 2080.13c-94.25,163.25 -37.8,373.93 125.44,468.18 156.39,90.29 356.31,42.27 455.69,-105.44 21.5,-37.24 69.76,-49.48 107.01,-27.97 37.24,21.5 50.01,69.13 28.5,106.37l-327.7 567.6c-94.25,163.25 -37.8,373.93 125.45,468.18 163.25,94.25 373.93,37.8 468.18,-125.45l12.89 -22.32c19.86,-34.4 63.86,-46.19 98.26,-26.33 34.39,19.86 46.19,63.85 26.33,98.26l-99.22 171.85c-94.25,163.25 -37.8,373.93 125.45,468.18 163.25,94.25 373.93,37.8 468.18,-125.45 104.3,-180.65 208.39,-361.43 312.68,-542.07 21.53,-37.3 69.23,-50.08 106.52,-28.55 37.3,21.53 50.07,69.23 28.54,106.52 -34.69,60.08 -169.3,294.56 -224.44,388.09 -94.25,163.25 -37.8,373.93 125.45,468.18 163.25,94.25 373.93,37.8 468.18,-125.45l1343.44 -2326.91c21.03,-36.43 61.5,-58.3 98.99,-36.65 32.76,18.91 44.31,60.98 25.4,93.74l-1012.66 1753.98c-94.25,163.25 -37.8,373.93 125.45,468.18 163.25,94.25 373.93,37.8 468.18,-125.45l1200.96 -2080.13c94.25,-163.25 37.8,-373.93 -125.45,-468.18 -163.25,-94.25 -373.93,-37.8 -468.18,125.45l-68.48 118.62zm-304.84 -1113.83c94.41,-163.54 303.53,-219.57 467.06,-125.15 163.54,94.42 219.57,303.53 125.15,467.06 -94.41,163.54 -303.53,219.57 -467.06,125.15 -163.54,-94.42 -219.57,-303.53 -125.15,-467.07z"/>
 </g>
</svg>
